<svg xmlns="http://www.w3.org/2000/svg" xmlns:xlink="http://www.w3.org/1999/xlink" viewBox="0 0 400 500"><defs><style>.cls-1{fill:none;}.cls-2{fill:#67c1eb;}.cls-3{clip-path:url(#clip-path);}.cls-4{fill:#0985ab;}.cls-5{fill:#08a64e;}.cls-6{fill:#45c07b;}.cls-7{fill:#5eb6e6;}</style><clipPath id="clip-path"><path class="cls-1" d="M0,75V425a75,75,0,0,0,75,75H325a75,75,0,0,0,75-75h0a75,75,0,0,0-75-75H150V75A75,75,0,0,0,75,0h0A75,75,0,0,0,0,75Z"/></clipPath></defs><g id="Layer_2" data-name="Layer 2"><g id="Layer_4" data-name="Layer 4"><g id="Logo_Design" data-name="Logo Design"><path class="cls-2" d="M0,75V387.5A112.5,112.5,0,0,0,112.5,500H325a75,75,0,0,0,75-75h0a75,75,0,0,0-75-75H150V75A75,75,0,0,0,75,0h0A75,75,0,0,0,0,75Z"/><g class="cls-3"><path class="cls-4" d="M150,75l-2.5-35-2.62,8.85A392.81,392.81,0,0,1,93.1,158.09h0q-8.1,11.91-17,23.2L52.83,210.57A392.53,392.53,0,0,0,9.27,279L0,297.5v90A112.5,112.5,0,0,0,112.5,500H150Z"/></g><path class="cls-5" d="M150,247.5h0A221.11,221.11,0,0,0,15.48,293.13L0,305v82.5A112.5,112.5,0,0,0,112.5,500H300V350H150Z"/><path class="cls-6" d="M150,225v87.5A37.5,37.5,0,0,0,187.5,350H325a75,75,0,0,1,75,75h0a75,75,0,0,1-75,75H282.16C155,500,74.23,363.91,135.11,252.29Z"/><polygon class="cls-7" points="137.72 247.84 150 247.5 150 225 143.75 236.25 137.72 247.84"/><path class="cls-6" d="M309.91,205.05l-51.16-94.88h132.5l-51.16,94.88A17.15,17.15,0,0,1,309.91,205.05Z"/><path class="cls-6" d="M325,150h0a75,75,0,0,1-75-75h0A75,75,0,0,1,325,0h0a75,75,0,0,1,75,75h0A75,75,0,0,1,325,150Zm33.75-75h0A33.75,33.75,0,0,0,325,41.25h0A33.75,33.75,0,0,0,291.25,75h0A33.75,33.75,0,0,0,325,108.75h0A33.75,33.75,0,0,0,358.75,75Z"/></g></g></g></svg>