<svg xmlns="http://www.w3.org/2000/svg" xmlns:xlink="http://www.w3.org/1999/xlink" viewBox="0 0 2383.43 830"><defs><style>.cls-1{fill:none;}.cls-2{fill:#45c07b;}.cls-3{fill:#0985ab;}.cls-4{fill:#08a64e;}.cls-5{fill:#67c1eb;}.cls-6{clip-path:url(#clip-path);}.cls-7{fill:#5eb6e6;}.cls-8{fill:#fff;}.cls-9{fill:#00a64f;}</style><clipPath id="clip-path"><path class="cls-1" d="M0,75V425a75,75,0,0,0,75,75H325a75,75,0,0,0,75-75h0a75,75,0,0,0-75-75H150V75A75,75,0,0,0,75,0h0A75,75,0,0,0,0,75Z"/></clipPath></defs><g id="Layer_2" data-name="Layer 2"><g id="Layer_4" data-name="Layer 4"><path class="cls-2" d="M705.45,502.91q-25,0-38.14-13.5t-13.16-38.47V211.31q0-25,13.16-38.14T704.1,160q24.3,0,37.13,13.16t12.82,38.14v38.48l-7.42-22.28q15.51-33.06,46.23-51t69.87-17.89q39.81,0,65.47,15.19t38.47,45.9q12.83,30.72,12.83,78V450.94q0,25-13.16,38.47t-38.14,13.5q-24.3,0-37.46-13.5t-13.16-38.47V302.44q0-34.43-12.49-49.62T827,237.64q-32.4,0-51.64,20.25t-19.23,54V450.94Q756.08,502.92,705.45,502.91Z"/><path class="cls-3" d="M1115.17,502.91q-25.67,0-39.15-13.5t-13.5-38.47V211.31q0-25,13.16-38.14T1112.47,160q24.3,0,37.12,13.16t12.83,38.14v35.1h-6.75q8.1-40.5,35.77-62.77t71.55-25q16.86-1.35,26,8.44t9.79,32.06q1.34,20.93-8.44,33.08t-32.74,14.85l-15.52,1.35q-38.47,3.38-57,22.27t-18.56,54.68V450.94q0,25-13.17,38.47T1115.17,502.91Z"/><path class="cls-3" d="M1456,504.26q-36.45,0-65.48-14.17t-45.22-38.48q-16.2-24.3-16.2-54.67,0-36.45,18.9-57.72t61.42-30.37q42.52-9.12,112.73-9.11H1558v52.65h-35.1q-34.42,0-55.68,3.71t-30.38,12.49q-9.1,8.78-9.11,24.3,0,18.9,13.16,31.05T1479,436.09q19.58,0,34.76-9.12a65.44,65.44,0,0,0,24-25q8.77-15.86,8.78-36.11V288.26q0-29.7-13.5-42.19t-45.9-12.48A196.59,196.59,0,0,0,1447.6,238a288.33,288.33,0,0,0-46.91,14.52q-14.85,6.75-26.33,3a31.16,31.16,0,0,1-17.55-13.5,40.1,40.1,0,0,1-6.07-21.6,43.78,43.78,0,0,1,6.75-22.95q6.73-11.13,22.27-16.53,31.73-12.83,59.74-17.55a312,312,0,0,1,51.64-4.73q52,0,85.39,15.19t50.28,46.57q16.88,31.4,16.88,80.67V450.94q0,25-12.15,38.47t-35.1,13.5q-22.95,0-35.44-13.5t-12.49-38.47V426l4.73,4.05q-4,23-17.21,39.49a88.25,88.25,0,0,1-33.42,25.65Q1482.36,504.26,1456,504.26Z"/><path class="cls-3" d="M1813.79,624.41q-17.57,0-29-9.45a37.08,37.08,0,0,1-13.5-24.64q-2-15.18,5.4-32.06l45.22-99.9v41.85l-119.47-274q-6.76-17.55-4.39-32.74a35.81,35.81,0,0,1,14.85-24.3q12.48-9.1,34.76-9.11,18.22,0,29.36,8.44t20.59,32.06L1877.24,403h-21.6L1938,199.84q9.45-23,21.26-31.39t32.07-8.44q17.54,0,28,9.11t12.82,24q2.36,14.85-5.73,32.4L1867.79,585.26q-10.12,22.93-22.61,31T1813.79,624.41Z"/><path class="cls-3" d="M2195.16,504.26q-36.45,0-65.47-14.17t-45.23-38.48q-16.2-24.3-16.2-54.67,0-36.45,18.9-57.72t61.43-30.37q42.52-9.12,112.72-9.11h35.78v52.65H2262q-34.42,0-55.69,3.71t-30.38,12.49q-9.11,8.78-9.11,24.3,0,18.9,13.16,31.05t38.14,12.15q19.57,0,34.77-9.12a65.58,65.58,0,0,0,24-25q8.76-15.86,8.77-36.11V288.26q0-29.7-13.5-42.19t-45.9-12.48a196.59,196.59,0,0,0-39.49,4.38,288.33,288.33,0,0,0-46.91,14.52q-14.85,6.75-26.32,3a31.12,31.12,0,0,1-17.55-13.5,40.11,40.11,0,0,1-6.08-21.6,43.78,43.78,0,0,1,6.75-22.95q6.75-11.13,22.28-16.53,31.71-12.83,59.74-17.55a311.83,311.83,0,0,1,51.63-4.73q52,0,85.39,15.19t50.29,46.57q16.86,31.4,16.87,80.67V450.94q0,25-12.15,38.47t-35.1,13.5q-22.95,0-35.43-13.5t-12.49-38.47V426l4.72,4.05q-4.05,23-17.21,39.49a88.14,88.14,0,0,1-33.41,25.65Q2221.49,504.26,2195.16,504.26Z"/><path class="cls-2" d="M909.25,702.06h15.41V730.5h.47a17.34,17.34,0,0,1,6.4-4.51,22,22,0,0,1,8.65-1.65q10.67,0,16.29,7.28t5.63,22.22q0,16-7.88,24.29t-21.63,8.29a71.5,71.5,0,0,1-13.86-1.24,41.5,41.5,0,0,1-9.48-2.79Zm26.43,35.31a10.58,10.58,0,0,0-6.94,2.19,13.73,13.73,0,0,0-4.08,6.34v25.83a13.91,13.91,0,0,0,4.08,1.3,29,29,0,0,0,4.68.36q6.29,0,9.54-4.56t3.26-14.52Q946.22,737.38,935.68,737.37Z"/><path class="cls-2" d="M994.09,759.05l2.13,9.24h.71l1.54-9.36,9-33.17h15.87l-18,53.43q-2.25,6.64-4.32,12.15a55.16,55.16,0,0,1-4.56,9.54A21.75,21.75,0,0,1,991,807.1a11.91,11.91,0,0,1-7.17,2.19q-6.16,0-9.83-2L976.79,795a9.37,9.37,0,0,0,3.55.71,7.83,7.83,0,0,0,5.28-2.31q2.53-2.31,3.85-8.35L964.7,725.76h18.49Z"/><path class="cls-4" d="M1319.61,721.41H1296v67.05h-15.89V721.41h-23.78V707.26h63.33Z"/><path class="cls-4" d="M1348.5,744.61a19.73,19.73,0,0,0-6.5-1.28,10.65,10.65,0,0,0-6.79,2.15,10.39,10.39,0,0,0-3.65,5.51v37.47h-15.08v-58h11.72l1.74,7.65h.46a15.75,15.75,0,0,1,5.34-6.61,13.51,13.51,0,0,1,7.88-2.32,22,22,0,0,1,6.85,1.28Z"/><path class="cls-4" d="M1358,733.82a50,50,0,0,1,11-3.31,71.17,71.17,0,0,1,13.34-1.21,30.21,30.21,0,0,1,10.09,1.45,14.5,14.5,0,0,1,9.8,10.49,32.5,32.5,0,0,1,1,8.36q0,5.1-.35,10.26c-.23,3.44-.37,6.83-.41,10.15s.06,6.56.29,9.69a37.2,37.2,0,0,0,1.74,8.87h-12.29l-2.44-8h-.58a20.59,20.59,0,0,1-6.44,6.2q-4.11,2.61-10.61,2.61a20.76,20.76,0,0,1-7.31-1.21,16.14,16.14,0,0,1-5.57-3.48,16,16,0,0,1-3.59-5.34,17.86,17.86,0,0,1-1.28-6.9,16.08,16.08,0,0,1,2.38-9,17.19,17.19,0,0,1,6.84-5.92,34,34,0,0,1,10.68-3.13,75.74,75.74,0,0,1,13.86-.52q.81-6.5-.93-9.34t-7.77-2.84a52.81,52.81,0,0,0-9.57.93,35.36,35.36,0,0,0-8.3,2.43ZM1377.15,777a11.56,11.56,0,0,0,7.19-2,14,14,0,0,0,3.94-4.35v-7.54a41.07,41.07,0,0,0-6.9-.11,25.07,25.07,0,0,0-5.86,1,9.93,9.93,0,0,0-4.06,2.32,5.21,5.21,0,0,0-1.5,3.83,6.55,6.55,0,0,0,1.91,5A7.4,7.4,0,0,0,1377.15,777Z"/><path class="cls-4" d="M1452.55,788.46v-33q0-7.07-2-10.21c-1.36-2.08-3.66-3.13-6.91-3.13a10.85,10.85,0,0,0-7.25,2.5,13.85,13.85,0,0,0-4.23,6.2v37.59h-15.08v-58h12l1.74,7.65h.46a25,25,0,0,1,7.08-6.49q4.41-2.79,11.37-2.79a23.47,23.47,0,0,1,7.65,1.16,13.14,13.14,0,0,1,5.69,3.83,17.59,17.59,0,0,1,3.48,7.25,47.11,47.11,0,0,1,1.16,11.31v36.08Z"/><path class="cls-4" d="M1505.44,772.45a4.32,4.32,0,0,0-2-3.71,24.2,24.2,0,0,0-4.87-2.56c-1.94-.77-4.06-1.56-6.38-2.37a24.19,24.19,0,0,1-6.38-3.37A18.3,18.3,0,0,1,1481,755a16.42,16.42,0,0,1-2-8.53q0-8.58,5.11-13.1t14.73-4.53a47.76,47.76,0,0,1,12,1.39,34.71,34.71,0,0,1,8.35,3.14l-3.36,10.9c-1.78-.7-4-1.43-6.73-2.2a29.6,29.6,0,0,0-8.24-1.16c-4.48,0-6.73,1.74-6.73,5.22a3.85,3.85,0,0,0,2,3.36,26,26,0,0,0,4.87,2.38c1.93.73,4.06,1.53,6.38,2.38a27.91,27.91,0,0,1,6.38,3.3,17.54,17.54,0,0,1,4.87,5.28,16,16,0,0,1,2,8.35q0,8.82-5.62,13.86T1498,790.08a41,41,0,0,1-11.54-1.57,35.36,35.36,0,0,1-8.76-3.65l4.17-11.25a41,41,0,0,0,7.08,3,29,29,0,0,0,9,1.45,10,10,0,0,0,5.39-1.28A4.68,4.68,0,0,0,1505.44,772.45Z"/><path class="cls-4" d="M1531.54,730.46h11l1.74,7h.47a19.16,19.16,0,0,1,7.13-6.5,22,22,0,0,1,10-2.09q10.9,0,16.36,6.9t5.45,22.22a47.92,47.92,0,0,1-1.74,13.4,28.36,28.36,0,0,1-5.16,10.15,22.64,22.64,0,0,1-8.35,6.38,31.35,31.35,0,0,1-17.23,1.68,20.62,20.62,0,0,1-4.64-1.68v23.78h-15.08Zm25.87,11.13a10.05,10.05,0,0,0-6.9,2.21,14.33,14.33,0,0,0-3.89,6.61v24.13a12.38,12.38,0,0,0,8.59,2.78q6.49,0,9.74-4.58t3.25-15.14q0-7.65-2.55-11.83T1557.41,741.59Z"/><path class="cls-4" d="M1592.56,759.46q0-14.73,7.19-22.68t20.18-7.95A30.31,30.31,0,0,1,1632,731a22.48,22.48,0,0,1,8.46,6.2,26.45,26.45,0,0,1,5,9.69,44.06,44.06,0,0,1,1.68,12.53q0,14.73-7.13,22.67t-20.13,8a30.41,30.41,0,0,1-12.06-2.2,23,23,0,0,1-8.53-6.21,26.08,26.08,0,0,1-5.1-9.69A44,44,0,0,1,1592.56,759.46Zm15.54,0a33.29,33.29,0,0,0,.7,7.07,19.89,19.89,0,0,0,2.08,5.69,10.12,10.12,0,0,0,3.66,3.77,10.41,10.41,0,0,0,5.39,1.33c4,0,6.88-1.43,8.82-4.29s2.9-7.39,2.9-13.57q0-8-2.67-12.94t-9-4.93a10.25,10.25,0,0,0-8.7,4.18Q1608.1,749.94,1608.1,759.46Z"/><path class="cls-4" d="M1690.81,744.61a19.73,19.73,0,0,0-6.5-1.28,10.6,10.6,0,0,0-6.78,2.15,10.35,10.35,0,0,0-3.66,5.51v37.47h-15.08v-58h11.72l1.74,7.65h.46a15.83,15.83,0,0,1,5.34-6.61,13.52,13.52,0,0,1,7.89-2.32,22,22,0,0,1,6.84,1.28Z"/><path class="cls-4" d="M1698.11,730.46h8V719.55l15.08-4.29v15.2h14.15v12.76H1721.2v22.27c0,4,.4,6.9,1.22,8.64s2.33,2.61,4.58,2.61a15.17,15.17,0,0,0,4-.46,27.33,27.33,0,0,0,3.77-1.4l2.67,11.6a38.4,38.4,0,0,1-7.31,2.56,35.08,35.08,0,0,1-8.47,1q-8,0-11.77-4.12t-3.77-13.51V743.22h-8Z"/><path class="cls-4" d="M1771,730.46h8v-3.25q0-11,4.64-16t13.45-4.93a46.23,46.23,0,0,1,15.43,2.2l-2.9,12.07a25.39,25.39,0,0,0-4.7-1.22,30.33,30.33,0,0,0-4.23-.29,8.06,8.06,0,0,0-3.66.69,4.31,4.31,0,0,0-2,2.15,11.53,11.53,0,0,0-.81,3.6c-.12,1.43-.17,3.07-.17,4.93h12.76v12.76h-12.76v45.24H1779V743.22h-8Z"/><path class="cls-4" d="M1811.33,759.46q0-14.73,7.19-22.68t20.19-7.95a30.23,30.23,0,0,1,12.06,2.21,22.52,22.52,0,0,1,8.47,6.2,26.75,26.75,0,0,1,5,9.69,44.06,44.06,0,0,1,1.68,12.53q0,14.73-7.14,22.67t-20.12,8a30.46,30.46,0,0,1-12.07-2.2,23,23,0,0,1-8.52-6.21A26,26,0,0,1,1813,772,44,44,0,0,1,1811.33,759.46Zm15.55,0a34,34,0,0,0,.69,7.07,19.9,19.9,0,0,0,2.09,5.69,10.1,10.1,0,0,0,3.65,3.77,10.45,10.45,0,0,0,5.4,1.33q5.91,0,8.81-4.29t2.9-13.57q0-8-2.67-12.94t-9-4.93a10.24,10.24,0,0,0-8.7,4.18Q1826.88,749.94,1826.88,759.46Z"/><path class="cls-4" d="M1909.58,744.61a19.68,19.68,0,0,0-6.5-1.28,10.64,10.64,0,0,0-6.78,2.15,10.27,10.27,0,0,0-3.65,5.51v37.47h-15.09v-58h11.72l1.74,7.65h.47a15.81,15.81,0,0,1,5.33-6.61,13.52,13.52,0,0,1,7.89-2.32,22,22,0,0,1,6.84,1.28Z"/><path class="cls-4" d="M2004.93,726.16a24.92,24.92,0,0,1-.75,6,16.76,16.76,0,0,1-2.48,5.51,17.43,17.43,0,0,1-4.49,4.4,19.61,19.61,0,0,1-6.69,2.85v.69a27.44,27.44,0,0,1,6.57,2,17,17,0,0,1,5.43,3.83,17.75,17.75,0,0,1,3.64,5.92,23.18,23.18,0,0,1,1.32,8.23,21.25,21.25,0,0,1-2.66,10.85,21.93,21.93,0,0,1-7.14,7.48,32.47,32.47,0,0,1-10.15,4.29,48.94,48.94,0,0,1-11.71,1.4h-5q-3.07,0-6.61-.18c-2.36-.11-4.76-.29-7.19-.52a51.71,51.71,0,0,1-6.67-1v-80c1.46-.24,3.15-.47,5-.7s3.93-.42,6.09-.58,4.39-.27,6.67-.35,4.54-.11,6.79-.11A69.53,69.53,0,0,1,1986,707a31.58,31.58,0,0,1,9.62,3.07,17.59,17.59,0,0,1,6.79,6.15A18,18,0,0,1,2004.93,726.16Zm-34,15.2c1.09,0,2.34,0,3.77-.11a35.13,35.13,0,0,0,3.54-.35,21.08,21.08,0,0,0,7.6-4.13,9.09,9.09,0,0,0,3.19-7.23,9.58,9.58,0,0,0-1.16-4.94,8.85,8.85,0,0,0-3.07-3.1,13.14,13.14,0,0,0-4.35-1.6,27.29,27.29,0,0,0-5.11-.46c-2,0-3.87,0-5.57.11a37.58,37.58,0,0,0-3.94.34v21.47Zm5,34.92a22.09,22.09,0,0,0,5.52-.69,14.48,14.48,0,0,0,4.73-2.13,11.19,11.19,0,0,0,3.3-3.61,10.28,10.28,0,0,0,1.25-5.17,10.46,10.46,0,0,0-1.48-6,10.06,10.06,0,0,0-3.87-3.39,16,16,0,0,0-5.36-1.55,51,51,0,0,0-5.92-.35h-8.31v22.17a6.9,6.9,0,0,0,1.82.34c.84.08,1.73.14,2.68.17l3,.12C1974.32,776.26,1975.22,776.28,1976,776.28Z"/><path class="cls-4" d="M2019.31,733.82a50.32,50.32,0,0,1,11-3.31,71.25,71.25,0,0,1,13.34-1.21,30.27,30.27,0,0,1,10.1,1.45,14.54,14.54,0,0,1,9.8,10.49,32.52,32.52,0,0,1,1,8.36q0,5.1-.34,10.26c-.24,3.44-.37,6.83-.41,10.15s.06,6.56.29,9.69a36.24,36.24,0,0,0,1.74,8.87h-12.3l-2.43-8h-.58a20.7,20.7,0,0,1-6.44,6.2,19.53,19.53,0,0,1-10.61,2.61,20.72,20.72,0,0,1-7.31-1.21,16,16,0,0,1-5.57-3.48,15.83,15.83,0,0,1-3.6-5.34,17.86,17.86,0,0,1-1.27-6.9,16.08,16.08,0,0,1,2.38-9,17.13,17.13,0,0,1,6.84-5.92,33.93,33.93,0,0,1,10.67-3.13,75.82,75.82,0,0,1,13.86-.52q.83-6.5-.92-9.34c-1.16-1.89-3.76-2.84-7.78-2.84a53,53,0,0,0-9.57.93,35.27,35.27,0,0,0-8.29,2.43ZM2038.45,777a11.57,11.57,0,0,0,7.2-2,14.17,14.17,0,0,0,3.94-4.35v-7.54a41.1,41.1,0,0,0-6.9-.11,25,25,0,0,0-5.86,1,9.87,9.87,0,0,0-4.06,2.32,5.18,5.18,0,0,0-1.51,3.83,6.56,6.56,0,0,0,1.92,5A7.37,7.37,0,0,0,2038.45,777Z"/><path class="cls-4" d="M2113.85,788.46v-33q0-7.07-2-10.21c-1.35-2.08-3.65-3.13-6.9-3.13a10.83,10.83,0,0,0-7.25,2.5,13.85,13.85,0,0,0-4.23,6.2v37.59h-15.08v-58h11.95l1.73,7.65h.47a25.08,25.08,0,0,1,7.07-6.49q4.41-2.79,11.37-2.79a23.53,23.53,0,0,1,7.66,1.16,13,13,0,0,1,5.68,3.83,17.35,17.35,0,0,1,3.48,7.25,46.61,46.61,0,0,1,1.16,11.31v36.08Z"/><path class="cls-4" d="M2192,768q0,4.88.11,9.74a83.11,83.11,0,0,0,1,10.79h-10.79l-2.09-7.54h-.46a17.59,17.59,0,0,1-6.67,6.56,20.32,20.32,0,0,1-10.27,2.49q-10.9,0-16.94-7.19t-6-22.51q0-14.83,6.73-23.08t19.72-8.24a35.45,35.45,0,0,1,5.92.41,24,24,0,0,1,4.64,1.33V707.26H2192Zm-25.64,9.28a10.42,10.42,0,0,0,7-2.15,11.6,11.6,0,0,0,3.6-6.2V744.38a11.68,11.68,0,0,0-3.6-1.92,17.09,17.09,0,0,0-5.1-.64q-6.39,0-9.57,4.3t-3.19,14.73q0,7.42,2.61,11.95T2166.4,777.32Z"/><path class="cls-4" d="M2220.92,730.46V763.4q0,7.08,1.68,10.21t6.56,3.13a10.28,10.28,0,0,0,7.13-2.55,15.6,15.6,0,0,0,4.23-6.27V730.46h15.08v40.36a92.26,92.26,0,0,0,.47,9.34,58.74,58.74,0,0,0,1.39,8.3h-11.37l-2.67-8.59H2243a21.65,21.65,0,0,1-7.42,7.31,21.27,21.27,0,0,1-11.26,2.9,24.92,24.92,0,0,1-7.88-1.16,12.89,12.89,0,0,1-5.8-3.83,17.8,17.8,0,0,1-3.54-7.19,44.68,44.68,0,0,1-1.22-11.37V730.46Z"/><path class="cls-4" d="M2305.48,788.46v-33q0-7.07-2-10.21c-1.35-2.08-3.65-3.13-6.9-3.13a10.83,10.83,0,0,0-7.25,2.5,13.85,13.85,0,0,0-4.23,6.2v37.59H2270v-58h11.94l1.74,7.65h.47a24.94,24.94,0,0,1,7.07-6.49q4.41-2.79,11.37-2.79a23.57,23.57,0,0,1,7.66,1.16,13,13,0,0,1,5.68,3.83,17.35,17.35,0,0,1,3.48,7.25,47.11,47.11,0,0,1,1.16,11.31v36.08Z"/><path class="cls-4" d="M2383.43,788.46q0,12.63-6.84,18.61t-19.14,6a59,59,0,0,1-13.17-1.16,33.6,33.6,0,0,1-7.25-2.44l3.14-12q2.65,1.05,6.2,2.09a31.24,31.24,0,0,0,8.76,1q7.89,0,10.73-3.43t2.84-9.57v-3.71h-.46q-4.06,5.46-14.39,5.45-11.25,0-16.76-7t-5.51-21.8q0-15.55,7.43-23.55t21.57-8a75.69,75.69,0,0,1,13.28,1.05,55.82,55.82,0,0,1,9.57,2.43Zm-25.52-11.14q4.41,0,6.79-2a12.41,12.41,0,0,0,3.65-5.92v-26.1a23.22,23.22,0,0,0-8.93-1.51,10.63,10.63,0,0,0-9,4.35q-3.26,4.35-3.25,13.87,0,8.46,2.78,12.87A8.92,8.92,0,0,0,2357.91,777.32Z"/><g id="Logo_Design" data-name="Logo Design"><path class="cls-5" d="M0,75V387.5A112.5,112.5,0,0,0,112.5,500H325a75,75,0,0,0,75-75h0a75,75,0,0,0-75-75H150V75A75,75,0,0,0,75,0h0A75,75,0,0,0,0,75Z"/><g class="cls-6"><path class="cls-3" d="M150,75l-2.5-35-2.62,8.85A392.81,392.81,0,0,1,93.1,158.09h0q-8.1,11.91-17,23.2L52.83,210.57A392.53,392.53,0,0,0,9.27,279L0,297.5v90A112.5,112.5,0,0,0,112.5,500H150Z"/></g><path class="cls-4" d="M150,247.5h0A221.11,221.11,0,0,0,15.48,293.13L0,305v82.5A112.5,112.5,0,0,0,112.5,500H300V350H150Z"/><path class="cls-2" d="M150,225v87.5A37.5,37.5,0,0,0,187.5,350H325a75,75,0,0,1,75,75h0a75,75,0,0,1-75,75H282.16C155,500,74.23,363.91,135.11,252.29Z"/><polygon class="cls-7" points="137.72 247.84 150 247.5 150 225 143.75 236.25 137.72 247.84"/><path class="cls-2" d="M502.41,205.05l-51.16-94.88h132.5l-51.16,94.88A17.15,17.15,0,0,1,502.41,205.05Z"/><path class="cls-2" d="M517.5,150h0a75,75,0,0,1-75-75h0a75,75,0,0,1,75-75h0a75,75,0,0,1,75,75h0A75,75,0,0,1,517.5,150Zm33.75-75h0A33.75,33.75,0,0,0,517.5,41.25h0A33.75,33.75,0,0,0,483.75,75h0a33.75,33.75,0,0,0,33.75,33.75h0A33.75,33.75,0,0,0,551.25,75Z"/></g><g id="Body"><path class="cls-8" d="M1146.06,829.84h2.69c.11.06.11.11,0,.16h-2.69C1146,830,1146,829.9,1146.06,829.84Z"/><path class="cls-8" d="M1064.81,742.89c.29-.38,0-.89.3-1.27a8,8,0,0,1-.13,2.07c-.06.1-.12.1-.17,0Z"/><path class="cls-8" d="M1065.11,753c-.27-.38,0-.89-.3-1.27V751c0-.11.11-.11.17,0A8,8,0,0,1,1065.11,753Z"/><path class="cls-8" d="M1229.87,748.44v-2.22c0-.11.09-.11.13,0v2.22C1230,748.55,1229.91,748.55,1229.87,748.44Z"/><path class="cls-8" d="M1230,746.22h-.13v-1h.13Z"/><path class="cls-8" d="M1229.87,748.44h.13v.95h-.13Z"/><path class="cls-8" d="M1143,665a.66.66,0,0,1,0-.14h.79c.11.06.11.1,0,.14Z"/><path class="cls-8" d="M1145.74,664.81c-.24.22-.53.15-.81.14,0,0-.07-.07,0-.1a.1.1,0,0,1,.07,0Z"/><path class="cls-8" d="M1149.88,665c-.28,0-.57.08-.81-.14h.79c.06,0,.09.05.07.09S1149.9,665,1149.88,665Z"/><path class="cls-8" d="M1151.76,664.81a.62.62,0,0,1,0,.13H1151c-.11,0-.12-.08,0-.14Z"/><path class="cls-8" d="M1146.06,829.84V830h-.79v-.16A2.1,2.1,0,0,1,1146.06,829.84Z"/><path class="cls-8" d="M1148.75,830v-.16a2.1,2.1,0,0,1,.79,0V830Z"/><path class="cls-8" d="M1145,664.81a.59.59,0,0,1,0,.14h-.62c-.1-.05-.1-.1,0-.14Z"/><path class="cls-8" d="M1149.88,665s0-.09,0-.14h.63c.11,0,.11.08,0,.14Z"/><path class="cls-8" d="M1065,744.16c0,.23,0,.46-.16.63v-.63C1064.87,744.05,1064.92,744.05,1065,744.16Z"/><path class="cls-8" d="M1064.81,749.86c.22.17.18.4.16.63s-.1.11-.16,0Z"/><path class="cls-8" d="M1144.32,664.81c0,.05,0,.1,0,.14h-.48a.66.66,0,0,0,0-.14Z"/><path class="cls-8" d="M1150.51,665a.68.68,0,0,1,0-.14h.48a.66.66,0,0,0,0,.14Z"/><path class="cls-8" d="M1065,744.16h-.16v-.48h.17Z"/><path class="cls-8" d="M1064.81,750.49h.16V751h-.17Z"/><path class="cls-9" d="M1229.86,741.79a58,58,0,0,0-1.45-12,81.7,81.7,0,0,0-7.45-20.69,83.5,83.5,0,0,0-5.53-9.12,86,86,0,0,0-9.35-11.21,85,85,0,0,0-19.11-14.3,81.39,81.39,0,0,0-16.8-6.87,65.93,65.93,0,0,0-18.44-2.75h-1.85c-.27,0-.55.08-.81-.08h-3.33c-.26.16-.55,0-.82.08h-1.85c-.64,0-1.27.06-1.9.07a51.26,51.26,0,0,0-9.87,1.09,82.44,82.44,0,0,0-29.18,11.9,81.47,81.47,0,0,0-14.54,12.11c-.94,1-1.89,2-2.79,3a85.75,85.75,0,0,0-8,10.89,82,82,0,0,0-10.41,26,57.2,57.2,0,0,0-1.43,11.74,13.42,13.42,0,0,1-.08,1.9v.49c0,.23.08.48-.08.69v5.07c.16.22,0,.47.08.7v.5a13.42,13.42,0,0,1,.08,1.9c0,.56.06,1.11.07,1.66a51.86,51.86,0,0,0,1.36,10,81.68,81.68,0,0,0,9.68,24.86,83.41,83.41,0,0,0,43.14,35.76,74.54,74.54,0,0,0,26.14,4.68h4.11c1.45-.15,2.9-.11,4.35-.14a57.22,57.22,0,0,0,11.71-1.61,82.67,82.67,0,0,0,23.06-9,84.89,84.89,0,0,0,16.87-12.74,83,83,0,0,0,22-37.5,77.33,77.33,0,0,0,2.1-10.45,72.94,72.94,0,0,0,.41-9.23v-3.94C1229.91,744.16,1229.86,743,1229.86,741.79ZM1147.05,810a62.69,62.69,0,1,1,63.06-62.57A62.73,62.73,0,0,1,1147.05,810Z"/><path class="cls-9" d="M1176.15,757.65a16.82,16.82,0,0,0-10.23-11.71,26.67,26.67,0,0,0-5.52-1.62c-.22,0-.42-.05-.43-.35a.41.41,0,0,1,.37-.49,19.12,19.12,0,0,0,2.05-.6,16.89,16.89,0,0,0,10.68-10.2,22.57,22.57,0,0,0,.94-12.16,16.15,16.15,0,0,0-8.3-11.37,26.06,26.06,0,0,0-6.81-2.69,58.59,58.59,0,0,0-13.25-1.56c-3.27-.07-6.54,0-9.81.17-1.9.07-3.8.19-5.69.34-3.08.24-6.14.61-9.19,1.05-1,.15-1,.13-1,1.15V785.2c0,.18,0,.37,0,.55,0,.41.09.61.53.7,1.58.32,3.17.59,4.76.77,3.57.4,7.15.63,10.74.76,3.11.12,6.23,0,9.34.06a47.84,47.84,0,0,0,10-1,33,33,0,0,0,12-4.75,20.5,20.5,0,0,0,8.94-12.23A24.4,24.4,0,0,0,1176.15,757.65Zm-40.89-38.46c0-.78,0-.77.75-.85a71.75,71.75,0,0,1,10.67-.29,15.67,15.67,0,0,1,6.64,1.57,8.54,8.54,0,0,1,5,7.69,11.56,11.56,0,0,1-.26,3.37,8.82,8.82,0,0,1-2.73,4.54,20.2,20.2,0,0,1-7.45,4.19,13.87,13.87,0,0,1-3.45.42c-2.84.16-5.69.18-8.54.16-.58,0-.59,0-.59-.63q0-5.1,0-10.2Zm25.13,45.91a10.3,10.3,0,0,1-4.84,7.27,16.4,16.4,0,0,1-6.73,2.36,36,36,0,0,1-6.48.16c-1.87,0-3.74-.13-5.61-.31-1.47-.15-1.47-.13-1.47-1.56v-20.1c0-.18,0-.37,0-.55s.09-.35.33-.34h.31c3.46,0,6.92-.08,10.37.07a24,24,0,0,1,7.08,1.1,11.41,11.41,0,0,1,5,3.3,9,9,0,0,1,2,5.2A14.32,14.32,0,0,1,1160.39,765.1Z"/></g><rect class="cls-2" x="467.5" y="252.5" width="100" height="250" rx="50"/></g></g></svg>