<svg xmlns="http://www.w3.org/2000/svg" xmlns:xlink="http://www.w3.org/1999/xlink" viewBox="0 0 415 651.83"><defs><style>.cls-1{fill:none;}.cls-2{font-size:117.07px;font-family:Nunito-ExtraBold, Nunito;font-weight:800;letter-spacing:0.01em;}.cls-10,.cls-2{fill:#45c07b;}.cls-3,.cls-4,.cls-5,.cls-8{fill:#0985ab;}.cls-3{letter-spacing:0.01em;}.cls-4{letter-spacing:0em;}.cls-5{letter-spacing:0.01em;}.cls-6{fill:#67c1eb;}.cls-7{clip-path:url(#clip-path);}.cls-9{fill:#08a64e;}.cls-11{fill:#5eb6e6;}</style><clipPath id="clip-path"><path class="cls-1" d="M7.5,75V425a75,75,0,0,0,75,75h250a75,75,0,0,0,75-75h0a75,75,0,0,0-75-75h-175V75a75,75,0,0,0-75-75h0A75,75,0,0,0,7.5,75Z"/></clipPath></defs><g id="Layer_2" data-name="Layer 2"><g id="Layer_4" data-name="Layer 4"><text class="cls-2" transform="translate(0 618.7)">Lin<tspan class="cls-3" x="171.62" y="0">ra</tspan><tspan class="cls-4" x="286.23" y="0">y</tspan><tspan class="cls-5" x="348.62" y="0">a</tspan></text><g id="Logo_Design" data-name="Logo Design"><path class="cls-6" d="M7.5,75V387.5A112.5,112.5,0,0,0,120,500H332.5a75,75,0,0,0,75-75h0a75,75,0,0,0-75-75h-175V75a75,75,0,0,0-75-75h0A75,75,0,0,0,7.5,75Z"/><g class="cls-7"><path class="cls-8" d="M157.5,75,155,40l-2.62,8.85A392.81,392.81,0,0,1,100.6,158.09h0q-8.1,11.91-17,23.2L60.33,210.57A392.53,392.53,0,0,0,16.77,279L7.5,297.5v90A112.5,112.5,0,0,0,120,500h37.5Z"/></g><path class="cls-9" d="M157.5,247.5h0A221.11,221.11,0,0,0,23,293.13L7.5,305v82.5A112.5,112.5,0,0,0,120,500H307.5V350h-150Z"/><path class="cls-10" d="M157.5,225v87.5A37.5,37.5,0,0,0,195,350H332.5a75,75,0,0,1,75,75h0a75,75,0,0,1-75,75H289.66c-127.14,0-207.93-136.09-147-247.71Z"/><polygon class="cls-11" points="145.22 247.84 157.5 247.5 157.5 225 151.25 236.25 145.22 247.84"/><path class="cls-10" d="M317.41,205.05l-51.16-94.88h132.5l-51.16,94.88A17.15,17.15,0,0,1,317.41,205.05Z"/><path class="cls-10" d="M332.5,150h0a75,75,0,0,1-75-75h0a75,75,0,0,1,75-75h0a75,75,0,0,1,75,75h0A75,75,0,0,1,332.5,150Zm33.75-75h0A33.75,33.75,0,0,0,332.5,41.25h0A33.75,33.75,0,0,0,298.75,75h0a33.75,33.75,0,0,0,33.75,33.75h0A33.75,33.75,0,0,0,366.25,75Z"/></g></g></g></svg>